<?xml version="1.0" encoding="UTF-8" standalone="no"?>
<!-- Created with Inkscape (http://www.inkscape.org/) -->

<svg
   xmlns:dc="http://purl.org/dc/elements/1.1/"
   xmlns:cc="http://creativecommons.org/ns#"
   xmlns:rdf="http://www.w3.org/1999/02/22-rdf-syntax-ns#"
   xmlns:svg="http://www.w3.org/2000/svg"
   xmlns="http://www.w3.org/2000/svg"
   xmlns:sodipodi="http://sodipodi.sourceforge.net/DTD/sodipodi-0.dtd"
   xmlns:inkscape="http://www.inkscape.org/namespaces/inkscape"
   id="svg2"
   version="1.1"
   inkscape:version="0.48.4 r9939"
   width="744.09446"
   height="1052.3622"
   xml:space="preserve"
   sodipodi:docname="Logo Goeland-02-PasThi.ai.svg"
   inkscape:export-filename="/home/tiweb/www/logoGoogle+.png"
   inkscape:export-xdpi="47.497822"
   inkscape:export-ydpi="47.497822"><metadata
     id="metadata8"><rdf:RDF><cc:Work
         rdf:about=""><dc:format>image/svg+xml</dc:format><dc:type
           rdf:resource="http://purl.org/dc/dcmitype/StillImage" /><dc:title></dc:title></cc:Work></rdf:RDF></metadata><defs
     id="defs6"><clipPath
       clipPathUnits="userSpaceOnUse"
       id="clipPath20"><path
         d="m 32.0083,578.60596 425.55127,0 0,-403.58449 -425.55127,0 0,403.58449 z"
         id="path22" /></clipPath><clipPath
       clipPathUnits="userSpaceOnUse"
       id="clipPath20-1"><path
         inkscape:connector-curvature="0"
         d="m 32.0083,578.60596 425.55127,0 0,-403.58449 -425.55127,0 0,403.58449 z"
         id="path22-3" /></clipPath></defs><sodipodi:namedview
     pagecolor="#ffffff"
     bordercolor="#666666"
     borderopacity="1"
     objecttolerance="10"
     gridtolerance="10"
     guidetolerance="10"
     inkscape:pageopacity="0"
     inkscape:pageshadow="2"
     inkscape:window-width="1366"
     inkscape:window-height="709"
     id="namedview4"
     showgrid="false"
     inkscape:zoom="1"
     inkscape:cx="305.62161"
     inkscape:cy="758.54207"
     inkscape:window-x="0"
     inkscape:window-y="27"
     inkscape:window-maximized="1"
     inkscape:current-layer="layer1" /><g
     id="g10"
     inkscape:groupmode="layer"
     inkscape:label="Logo Goeland-02"
     transform="matrix(1.25,0,0,-1.25,0,1052.3622)"
     style="opacity:0.95180718;display:none"
     sodipodi:insensitive="true"><g
       id="g12"
       transform="matrix(1,0,0,-1,11.2,-136)"><path
         d="m 442.10254,-373.44238 c 0,102.30859 -86.84668,185.25 -193.97412,185.25 -107.12891,0 -193.97461,-82.94141 -193.97461,-185.25 0,-102.30957 86.8457,-185.25 193.97461,-185.25 107.12744,0 193.97412,82.94043 193.97412,185.25 z"
         style="fill:#ffffff;fill-opacity:1;fill-rule:nonzero;stroke:none"
         id="path14"
         inkscape:connector-curvature="0" /><g
         id="g16"
         transform="scale(1,-1)"><g
           id="g18" /><g
           id="g24"><g
             clip-path="url(#clipPath20)"
             id="g26"
             style="opacity:0.8"><g
               transform="scale(1,-1)"
               id="g28"><path
                 d="m 171.39502,-203.27148 c -12.21094,-4.28028 -24.04443,-9.9502 -35.16064,-16.85547 42.92675,28.28418 96.8164,38.52734 147.45507,29.00879 -37.10644,5.60839 -77.29199,1.70898 -112.29443,-12.15332 z m 254.17139,-217.92627 c -15.93067,-45.42432 -50.64746,-83.57715 -94.57227,-104.71973 -43.68408,-21.3999 -96.64355,-25.65674 -144.59228,-10.15625 0.0498,0.146 -0.0308,0.33838 -0.32081,0.58838 -1.47851,1.24902 -5.68603,3.1123 -9.40917,4.32226 -10.60108,3.62207 -20.8545,8.17432 -30.65137,13.67627 -17.72559,10.97168 -33.43701,25.02588 -46.11817,41.29981 10.23096,-12.93945 22.25733,-24.43799 35.68018,-33.74756 3.9043,-2.95117 7.5874,-4.38379 7.56592,-3.44873 0.04,0.89062 -3.2583,3.8374 -7.27051,6.84473 -17.5708,12.9082 -33.37939,30.26953 -45.06543,49.42334 -11.81885,19.13232 -19.40381,39.86035 -24.07617,58.92285 -7.2041,50.05371 10.70898,100.95605 44.18359,134.87011 33.10059,34.51856 79.4209,52.50586 123.37842,52.30664 1.73975,-0.0576 3.7832,0.14942 4.65771,0.4961 1.17188,0.28906 0.80713,0.67285 -0.75,0.73926 -45.71777,2.49316 -98.09423,-15.60059 -134.43945,-55.77442 -36.90088,-39.11621 -53.60791,-100.9873 -36.72363,-157.26611 1.89062,-6.85254 4.44971,-13.46191 7.16894,-19.96436 -9.08447,18.25 -15.01806,38.63575 -16.96337,60.2334 0.46484,2.25977 0.65771,5.86035 0.71337,10.07129 0.27784,10.15137 1.54688,20.23242 3.56202,30.11914 0.07226,-0.45117 0.20019,-0.7168 0.37304,-0.77344 0.74707,-0.083 1.80371,3.50782 2.85108,7.85254 5.67138,24.58887 16.94287,47.66895 32.43408,67.72168 0,0 1.06738,1.4043 1.06738,1.4043 39.90723,48.69336 104.64795,73.66406 166.17578,66.84473 61.58057,-5.68164 119.0835,-43.61231 146.29248,-98.3877 0.64942,-1.55957 1.70703,-3.92871 2.49121,-4.91016 0.85352,-1.1748 1.11036,-0.80664 0.59375,0.81153 0.26172,0.0615 0.81055,-0.18164 0.60645,0.3457 -16.88184,41.9209 -49.88184,77.66602 -97.40137,96.63672 -16.32226,6.53223 -33.59521,10.54688 -50.99316,12.45605 18.11523,-0.94531 35.44433,-3.88378 50.8457,-7.95996 43.73633,-16.20312 80.37891,-49.03906 103.14551,-87.63671 0,0 -1.25684,1.42089 -1.25684,1.42089 1.86036,-3.53125 4.03223,-6.58984 4.64942,-6.41504 0.74707,-0.0937 -0.34668,3.02344 -2.23926,6.68165 -18.99805,38.09863 -52.3916,69.59277 -92.53809,87.43359 -40.0913,18.14648 -86.60693,22.36328 -130.29785,12.39746 -43.71435,-10.03223 -84.33545,-35.01563 -112.7373,-70.7334 -28.49414,-35.56543 -43.87012,-82.02051 -41.27735,-128.14551 3.1128,-74.09375 54.01465,-140.52734 121.30713,-167.35937 9.95508,-4.21631 18.74268,-5.52002 18.98047,-3.98779 0.18945,1.56054 -7.76123,5.22363 -17.4414,9.42089 -64.14405,26.56104 -111.9419,89.44532 -116.03907,159.30811 -2.23486,30.4668 3.57324,61.12109 16.09961,88.42773 -9.39258,-21.55468 -14.17969,-45.02636 -14.14062,-68.19824 -1.81543,-35.42773 7.8042,-72.11523 28.02734,-102.82959 48.97559,-74.03467 141.77686,-103.26221 227.17627,-79.84424 41.56348,11.71582 74.99219,32.88428 100.84277,60.75049 25.58204,27.91309 44.12598,63.72852 48.26172,106.72705 0.31348,3.75586 0.2041,7.96582 -0.27929,9.45899 -0.51758,1.58691 -1.06055,-0.0859 -1.39844,-3.78418 -7.52735,-82.76856 -65.55762,-146.81104 -144.4375,-169.36817 -42.13184,-11.78027 -86.2417,-10.68359 -126.47803,2.67676 -40.14795,13.35156 -76.55615,39.74317 -100.63184,76.60889 -3.21728,4.99658 -6.16455,10.10742 -8.89501,15.32959 9.62353,-16.82422 21.77929,-31.79346 35.6958,-44.1958 51.78125,-51.84717 132.18652,-67.37744 200.82568,-43.39063 53.06348,18.23242 98.25781,58.53369 116.30664,112.78174 2.35645,6.77197 3.26172,13.54492 2.44629,15.0752 -0.86133,1.54882 -2.71484,-2.87207 -4.9707,-9.48877 z"
                 style="fill:#fccf29;fill-opacity:1;fill-rule:nonzero;stroke:none"
                 id="path30"
                 inkscape:connector-curvature="0" /><path
                 d="m 229.39502,-175.86816 c -30.45508,-3.14844 -60.9624,-13.17286 -86.88721,-25.54004 -1.25049,-0.56348 -2.08349,-0.7793 -1.5747,-0.24414 0.52246,0.54004 1.89306,1.38964 3.3413,2.07226 25.05079,11.6377 54.87989,21.2832 84.12696,24.46973 1.76904,0.14941 3.229,0.1123 3.38769,-0.12305 0.29883,-0.1875 -0.93506,-0.48926 -2.39404,-0.63476 z"
                 style="fill:#f7b12b;fill-opacity:1;fill-rule:nonzero;stroke:none"
                 id="path32"
                 inkscape:connector-curvature="0" /><path
                 d="m 124.23779,-210.90527 c -40.67578,-24.98536 -74.23535,-67.70606 -86.09424,-118.67286 -12.34814,-50.53222 -2.65917,-107.36572 27.07911,-151.68554 48.29052,-72.65528 135.70849,-105.82422 218.79101,-93.05029 27.54004,4.06591 53.96387,13.47851 76.87793,25.12158 1.93262,1.05761 3.16504,1.41455 2.63086,0.73584 -0.64453,-0.7666 -2.5791,-2.18409 -4.77539,-3.27881 -48.1709,-25.04981 -105.14062,-33.28125 -159.18799,-21.74707 -54.00195,11.25586 -104.60644,43.83301 -135.29248,91.11377 -29.64746,44.67187 -39.58789,102.28662 -26.77978,153.65674 12.28173,51.77246 46.78222,95.16211 88.35302,119.80371 1.11621,0.66308 1.83692,0.84277 1.55469,0.39843 -0.57324,-0.61425 -2.05908,-1.74414 -3.15674,-2.3955 z"
                 style="fill:#f7b12b;fill-opacity:1;fill-rule:nonzero;stroke:none"
                 id="path34"
                 inkscape:connector-curvature="0" /><path
                 d="m 199.94434,-571.14697 c -58.09864,13.51953 -109.59327,50.91748 -140.40284,104.12207 -16.67236,28.65674 -25.28222,61.5376 -23.80908,95.81103 2.53858,45.98242 18.90235,84.23633 45.93213,119.54004 0.90039,1.16504 1.9502,2.21192 2.36865,2.35059 0.20362,-0.0977 -0.29931,-1.01758 -1.208,-2.19336 -29.34961,-37.98535 -46.49317,-82.95215 -45.18946,-131.91309 1.40283,-45.45849 20.56348,-88.98193 50.42871,-121.28906 29.74512,-32.65625 69.2959,-55.09961 112.28858,-65.60596 1.83398,-0.41357 2.91797,-0.89013 2.95996,-1.12353 -0.16016,-0.22901 -1.74658,-0.0806 -3.36865,0.30127 z"
                 style="fill:#f7b12b;fill-opacity:1;fill-rule:nonzero;stroke:none"
                 id="path36"
                 inkscape:connector-curvature="0" /><path
                 d="m 70.23486,-389.99414 c -3.3955,28.13769 1.24659,58.49902 13.90332,84.35059 12.39991,25.99121 32.26856,46.99609 53.14991,60.14648 1.1538,0.64258 1.46923,0.53027 0.90087,-0.14844 -0.57666,-0.64062 -1.89843,-1.86133 -2.92529,-2.52246 -20.30029,-13.27051 -38.93066,-34.27441 -50.54346,-59.55957 -11.71728,-25.24121 -15.97265,-54.33594 -12.98193,-81.4043 0.20215,-2.61035 0.32666,-4.85937 -0.09277,-5.20703 -0.39405,-0.16699 -1.06836,1.60157 -1.41065,4.34473 z"
                 style="fill:#f7b12b;fill-opacity:1;fill-rule:nonzero;stroke:none"
                 id="path38"
                 inkscape:connector-curvature="0" /><path
                 d="m 244.63867,-179.87109 c -61.56836,-0.25293 -121.5083,-30.042 -159.87158,-76.62403 -17.5957,-23.05859 -30.12451,-49.86816 -36.53906,-78.11816 -0.76709,-4.0752 -1.85401,-7.30176 -2.43164,-7.20801 -0.58008,0.085 -0.42383,3.52441 0.35547,7.6582 3.0415,14.45704 7.65332,28.56739 13.91455,41.92579 -0.35157,-0.31543 -0.59864,-0.38868 -0.72852,-0.19043 -22.83594,-46.76563 -24.97266,-103.40821 -5.5835,-152.10694 1.11084,-2.68066 1.65479,-4.83447 1.30225,-4.95263 -0.3584,-0.18165 -1.54443,1.88232 -2.6582,4.56982 -20.65235,50.91357 -17.1084,110.47119 8.33496,158.23389 0.81055,1.83007 1.84717,3.90429 3.04736,6.01953 22.62012,39.56054 57.87695,69.55859 99.63916,86.77539 59.36963,24.5332 127.04492,23.48926 183.72461,-6.30176 22.29102,-11.74219 41.52344,-28.22461 58.07715,-47.40625 13.91797,-16.05957 26.20215,-34.74805 32.50586,-53.25684 8.82715,-25.43164 10.60547,-49.62597 8.32812,-72.13671 -0.1289,-1.37598 -0.41894,-1.50489 -0.5498,-0.45215 -0.20898,0.77539 -0.28906,2.67773 -0.16504,3.82617 2.10645,22.46582 -1.39355,48.03613 -8.85352,70.50683 -18.17285,42.5459 -51.13964,76.86915 -90.77441,98.90723 -32.15723,15.31152 -65.55078,20.64649 -101.07422,20.33106 z"
                 style="fill:#f16030;fill-opacity:1;fill-rule:nonzero;stroke:none"
                 id="path40"
                 inkscape:connector-curvature="0" /></g></g></g></g><path
         d="m 445.66602,-475.22412 c 0,0 -41.33399,25.33301 -41.33399,25.33301 0,0 6.66699,28 6.66699,28 0,0 48.667,-12.66651 48.667,-12.66651 0,0 -14,-40.6665 -14,-40.6665 z"
         style="fill:#ffffff;fill-opacity:1;fill-rule:nonzero;stroke:none"
         id="path42"
         inkscape:connector-curvature="0" /><path
         d="m 19.66553,-377.22363 c 0,0 43.99951,-9.00196 56.66699,-35.33399 0.66748,22.66797 4.6665,50.66699 4.6665,50.66699 0,0 -38.99902,6.00098 -51.99902,25.00098 -1,-20 -9.33447,-40.33398 -9.33447,-40.33398 z"
         style="fill:#ffffff;fill-opacity:1;fill-rule:nonzero;stroke:none"
         id="path44"
         inkscape:connector-curvature="0" /><path
         d="m 264.5,-365.38965 c -23,-7.5 -33.5,-30.5 -66.5,-39 -9.73193,-2.50683 -38.5,-8 -60,-2.5 -21.5,5.5 -114,54 -128,54 19,-2.5 89,-29 96.5,-32.5 7.5,-3.5 31.80225,-10.52441 47,-10 29,1 42,3 61.5,12.5 8.64648,4.21192 36,19.5 49.5,17.5 z"
         style="fill:#6e84cb;fill-opacity:1;fill-rule:nonzero;stroke:none"
         id="path46"
         inkscape:connector-curvature="0" /><path
         d="m 507.66699,-469.88965 c -22.83886,-4.28223 -36.61621,-1.0083 -56.33301,8.3335 -12.66699,6 -77.33398,38.33349 -108.66699,55.6665 18.66699,-8.66699 71.86719,-32.21142 78.33203,-35.33252 9.66797,-4.66748 29.66797,-15.00049 54.33496,-23.66748 30.26465,-10.63379 71.83008,16.18262 100,29.3335 2.25586,1.05322 7.6377,2.82715 9.66504,3.66748 -22.66504,-22.66748 -61.33203,-35.00098 -77.33203,-38.00098 z"
         style="fill:#6e84cb;fill-opacity:1;fill-rule:nonzero;stroke:none"
         id="path48"
         inkscape:connector-curvature="0" /><path
         d="m 134,-282.55566 c 3.56152,-3.30762 33.66504,-31.28907 51,-36.33399 0,0 -0.5,6.75 -0.5,6.75 -19,8.75 -34.5,21.75 -44.83301,29.91699 0,0 -5.66699,-0.333 -5.66699,-0.333 z"
         style="fill:#6e84cb;fill-opacity:1;fill-rule:nonzero;stroke:none"
         id="path50"
         inkscape:connector-curvature="0" /><path
         d="m 340,-379.88965 c 7,-1.25 22.5,-1.5 29,4 3.10645,2.62891 2.25,9.5 2.25,9.5 0,0 -4.5,-6 -8.75,-6 -4.5,-2.75 -18,1.75 -24.5,1.75 11,-4.75 6.5,-8.75 2,-9.25 z"
         style="fill:#6e84cb;fill-opacity:1;fill-rule:nonzero;stroke:none"
         id="path52"
         inkscape:connector-curvature="0" /><path
         d="m 282,-383.38965 c 0,0 -4.25,-3.75 -4.25,-3.75 11,-12 55.91699,-33.4165 71.75,-4.25 -13.83301,-9.16601 -28.5,-20 -67.5,8 z"
         style="fill:#6e84cb;fill-opacity:1;fill-rule:nonzero;stroke:none"
         id="path54"
         inkscape:connector-curvature="0" /></g></g><g
     inkscape:groupmode="layer"
     id="layer1"
     inkscape:label="Calque"><g
       id="g3012"
       style="fill:#008080"><path
         id="path46-3"
         style="fill:#008080;fill-opacity:1;fill-rule:nonzero;stroke:none"
         d="m 346.75061,267.64227 c -19.44155,-9.375 -28.31704,-38.125 -56.21144,-48.75 -8.22626,-3.13354 -32.54347,-10 -50.71709,-3.125 -18.17363,6.875 -96.36248,67.5 -108.19647,67.5 16.06041,-3.125 75.23036,-36.25 81.56999,-40.625 6.33964,-4.375 26.88196,-13.15552 39.72839,-12.5 24.51326,1.25 35.50196,3.75 51.98502,15.625 7.30874,5.2649 30.43026,24.375 41.8416,21.875 z"
         inkscape:connector-curvature="0" /><path
         id="path48-0"
         style="fill:#008080;fill-opacity:1;fill-rule:nonzero;stroke:none"
         d="m 552.19444,182.45377 c -16.29659,-4.0523 -26.12736,-0.95417 -40.1962,7.88602 -9.03848,5.67784 -55.18135,36.27516 -77.53889,52.67748 13.31974,-8.20162 51.28055,-30.48182 55.89351,-33.43533 6.89853,-4.41686 21.16946,-14.19504 38.77048,-22.39665 21.59522,-10.06281 51.25406,15.31369 71.3546,27.75843 1.60965,0.99666 5.44985,2.67535 6.89645,3.47055 -16.17255,-21.45034 -43.76322,-33.12159 -55.17995,-35.9605 z"
         inkscape:connector-curvature="0" /><path
         id="path50-1"
         style="fill:#008080;fill-opacity:1;fill-rule:nonzero;stroke:none"
         d="m 239.62561,361.79424 c 5.84858,-8.01343 55.28328,-75.80455 83.75,-88.02697 0,0 -0.82107,16.35334 -0.82107,16.35334 -31.20099,21.19878 -56.65442,52.6941 -73.62284,72.48039 0,0 -9.30609,-0.80676 -9.30609,-0.80676 z"
         inkscape:connector-curvature="0" /><path
         id="path52-0"
         style="fill:#008080;fill-opacity:1;fill-rule:nonzero;stroke:none"
         d="m 433.12561,255.51727 c 8.75,-1.5625 28.125,-1.875 36.25,5 3.88306,3.28613 2.8125,11.875 2.8125,11.875 0,0 -5.625,-7.5 -10.9375,-7.5 -5.625,-3.4375 -22.5,2.1875 -30.625,2.1875 13.75,-5.9375 8.125,-10.9375 2.5,-11.5625 z"
         inkscape:connector-curvature="0" /><path
         id="path54-6"
         style="fill:#008080;fill-opacity:1;fill-rule:nonzero;stroke:none"
         d="m 349.62561,257.14227 c 0,0 -5.3125,-4.6875 -5.3125,-4.6875 13.75,-15 69.89624,-41.77063 89.6875,-5.3125 -17.29126,-11.45752 -35.625,-25 -84.375,10 z"
         inkscape:connector-curvature="0" /></g></g></svg>